#!OML:ASF E:/inclinewalkrobotboard/Project1/Captureday1/Session1/subject1.ASF
:FULLY-SPECIFIED
:DEGREES
213
root 0 0 0 -1.0403032264466994 -2.736438409029766 -2.459867348753118
lowerback 9.413974749342302 0.3508668632889287 0.6700138773110389
upperback -0.010553913286146965 0.6828640354872795 1.7371859653276647
thorax -5.187395322837 0.3547486141648462 1.3541700385123923
lowerneck -16.478081744939864 -2.973038265307477 -1.9393374247664088
upperneck 19.872535209996734 -3.808516680646285 0.6898760770227153
head 9.048669680361833 -1.8485004341982183 0.07818920933470297
rclavicle -6.591719759140952E-16 -4.786966932730478E-16
rhumerus -23.747589051570642 -18.870007006106064 -74.92281499103817
rradius 27.038433490428144
rwrist 6.480970251962354
rhand -15.809447405492195 20.968007285236986
rfingers 7.125020000000033
rthumb 10.362409726301298 -8.510418358911418
lclavicle -6.594365096062235E-16 -3.1747320045509467E-16
lhumerus -29.69186258635463 1.4246429274304866 78.08377315755666
lradius 28.738350740729103
lwrist 3.1759603608413407
lhand -23.858884123627167 23.32277056493865
lfingers 7.12502000000004
lthumb 2.558894056722764 53.0052986927505
rfemur -2.333291030674488 -8.342756039807128 13.800877611076018
rtibia 38.99266167732654
rfoot -9.010466138198053 -8.220080468727943
rtoes 6.388354661699072
lfemur -14.105128721839051 -0.5509722408212827 -20.75512033899896
ltibia 34.28020473908832
lfoot -9.131137063759331 -0.49599527252787823
ltoes -2.090509377397984
214
root 0 0 0 -0.9977104969397104 -2.757020740846702 -2.4694180604173948
lowerback 9.392109501370513 0.3515832625615718 0.6665177776209479
upperback -0.025252539483787473 0.6834968182524994 1.7382973298209343
thorax -5.190791737598704 0.35521475476433007 1.3576027148345227
lowerneck -16.46902764739344 -2.96846234690401 -1.9365037724577916
upperneck 19.878983446750162 -3.803530377659469 0.6942876163118279
head 9.049797155411335 -1.8458753497636309 0.0795666088546394
rclavicle -6.581381924275706E-16 -4.79578067167583E-16
rhumerus -23.680214129584442 -18.876855397132438 -74.88080504465698
rradius 27.040182274135308
rwrist 6.511525236012059
rhand -15.781034057812576 20.944602698473176
rfingers 7.125020000000033
rthumb 10.389525109773663 -8.53032138498172
lclavicle -6.582001511009431E-16 -3.1919779205841573E-16
lhumerus -29.65279140952488 1.4333128453178885 78.0223164765567
lradius 28.748466396000957
lwrist 3.1469620029665837
lhand -23.815739582617088 23.324105327450454
lfingers 7.125020000000039
lthumb 2.6008552892069936 53.001751963516455
rfemur -2.17373331126781 -8.535948816152228 13.61283596621736
rtibia 39.000148164239576
rfoot -9.032094427072048 -8.245004727809677
rtoes 6.424640367167193
lfemur -14.182868630498426 -0.5285695474745165 -20.772807286162607
ltibia 34.307106386005216
lfoot -9.157835687994123 -0.458189767326612
ltoes -2.060728597092501
215
root 0 0 0 -0.9702718333133404 -2.769314643410702 -2.475112635329223
lowerback 9.37779309863128 0.3518986236083502 0.6640948806471898
upperback -0.034783394788529876 0.6837534904804916 1.7391271321366646
thorax -5.192899560798575 0.3554431202470829 1.360010102926946
lowerneck -16.463022533503242 -2.965707719418379 -1.9348169380573492
upperneck 19.883454999295985 -3.800487650199937 0.6970501952026287
head 9.050633402876109 -1.844338914229375 0.08043273353653813
rclavicle -6.575414807876079E-16 -4.800501948200753E-16
rhumerus -23.632351131018197 -18.881669862654757 -74.85101853541694
rradius 27.04137326819132
rwrist 6.533538576314136
rhand -15.76070429800821 20.92787891596586
rfingers 7.125020000000032
rthumb 10.40892425105247 -8.544543478411002
lclavicle -6.571907676794062E-16 -3.2051413695544064E-16
lhumerus -29.62241284468034 1.4401224697415014 77.97429309641119
lradius 28.7563125803383
lwrist 3.1241958290537255
lhand -23.781934823925948 23.325138005970448
lfingers 7.125020000000039
lthumb 2.633682571355667 52.998975074530456
rfemur -2.056378905707305 -8.678483976314922 13.473867295973804
rtibia 39.006636552503025
rfoot -9.047757971035086 -8.263389521657826
rtoes 6.451732548281768
lfemur -14.240610576979336 -0.511880244967319 -20.78588634416336
ltibia 34.327361532532244
lfoot -9.177465380968815 -0.43016806694252807
ltoes -2.03861361250088
216
root 0 0 0 -1.149252724044544 -2.6790199741817275 -2.433301493281287
lowerback 9.469035883260126 0.3482684532211945 0.6782069515451057
upperback 0.026738294242276694 0.6804953709138936 1.7351480598956073
thorax -5.178418212048111 0.35310353485229323 1.3461877311118817
lowerneck -16.500342121971432 -2.9856451222352236 -1.9473454645813493
upperneck 19.857700370291074 -3.8219045694083964 0.6781950759334485
head 9.046525125187976 -1.8559590209290868 0.07455425379724223
rclavicle -6.595018423825736E-16 -4.805425034333732E-16
rhumerus -23.881487618582426 -18.856398249529864 -75.0106856633762
rradius 27.03631385983297
rwrist 6.413911106558665
rhand -15.869207283288986 21.01670281027286
rfingers 7.125020000000035
rthumb 10.304493666259276 -8.468370968654765
lclavicle -6.619391257612473E-16 -3.136749600338819E-16
lhumerus -29.761368776075408 1.4102774638843245 78.19447237896904
lradius 28.71979114838127
lwrist 3.2261064246067335
lhand -23.939029516365963 23.320997919962654
lfingers 7.125020000000041
lthumb 2.4817490839293086 53.01222399870196
rfemur -2.6302468216049704 -7.982057124737224 14.150338660319619
rtibia 38.98026481263535
rfoot -8.970376192905462 -8.172839537245503
rtoes 6.320203523222876
lfemur -13.961561005979192 -0.5921662575190538 -20.723627519830664
ltibia 34.22786967720138
lfoot -9.084925543640255 -0.5656934838552097
ltoes -2.1468426348008
217
root 0 0 0 -1.0898021538554303 -2.7080206917412184 -2.4471833083397865
lowerback 9.438370795446751 0.3493144320966334 0.6733661843998675
upperback 0.006052199598801877 0.681426577309103 1.7364834813954717
thorax -5.183186092810407 0.3538001415331253 1.3510060657743326
lowerneck -16.487696947853323 -2.979255803017224 -1.9433038763348152
upperneck 19.866920835433394 -3.815305782332533 0.6843679083075185
head 9.048016779001934 -1.852355496971899 0.07644546613152081
rclavicle -6.599148548411195E-16 -4.806440704300856E-16
rhumerus -23.84144942357708 -18.861368110589503 -74.97956683006736
rradius 27.037347669643403
rwrist 6.435234681598125
rhand -15.850484496049038 21.00150025941914
rfingers 7.125020000000034
rthumb 10.323213773666428 -8.48200169382837
lclavicle -6.608635766182569E-16 -3.157271360653557E-16
lhumerus -29.733401910038793 1.4153007465206446 78.15010757460858
lradius 28.727949220624136
lwrist 3.2076039543784134
lhand -23.906110516892877 23.321211070551193
lfingers 7.125020000000041
lthumb 2.5132177804979037 53.00905355772751
rfemur -2.484041405150066 -8.159813536094049 13.980610861316649
rtibia 38.98348237825229
rfoot -8.991116074030433 -8.196404735373733
rtoes 6.352940341196707
lfemur -14.007317350655448 -0.5797709220491054 -20.73365032420763
ltibia 34.243093762827584
lfoot -9.099922162112088 -0.5429095356014138
ltoes -2.128406895377058
